<mxfile host="app.diagrams.net" agent="Mozilla/5.0 (X11; Ubuntu; Linux x86_64; rv:132.0) Gecko/20100101 Firefox/132.0" version="24.8.3">
  <diagram name="Page-1" id="V6FSeJS0DYEMgdJ8QZhM">
    <mxGraphModel dx="989" dy="541" grid="1" gridSize="10" guides="1" tooltips="1" connect="1" arrows="1" fold="1" page="1" pageScale="1" pageWidth="850" pageHeight="1100" math="0" shadow="0">
      <root>
        <mxCell id="0" />
        <mxCell id="1" parent="0" />
        <mxCell id="zkv0B2UUDF8M9o5TSkQS-1" value="k xor ipad" style="rounded=0;whiteSpace=wrap;html=1;fillColor=#d5e8d4;strokeColor=#82b366;" vertex="1" parent="1">
          <mxGeometry x="120" y="260" width="160" height="60" as="geometry" />
        </mxCell>
        <mxCell id="zkv0B2UUDF8M9o5TSkQS-11" style="edgeStyle=orthogonalEdgeStyle;rounded=0;orthogonalLoop=1;jettySize=auto;html=1;exitX=0.219;exitY=1;exitDx=0;exitDy=0;entryX=0.25;entryY=1;entryDx=0;entryDy=0;exitPerimeter=0;" edge="1" parent="1" source="zkv0B2UUDF8M9o5TSkQS-2" target="zkv0B2UUDF8M9o5TSkQS-7">
          <mxGeometry relative="1" as="geometry" />
        </mxCell>
        <mxCell id="zkv0B2UUDF8M9o5TSkQS-2" value="m[0]" style="rounded=0;whiteSpace=wrap;html=1;fillColor=#ffe6cc;strokeColor=#d79b00;" vertex="1" parent="1">
          <mxGeometry x="280" y="260" width="160" height="60" as="geometry" />
        </mxCell>
        <mxCell id="zkv0B2UUDF8M9o5TSkQS-3" value="m[1]" style="rounded=0;whiteSpace=wrap;html=1;fillColor=#ffe6cc;strokeColor=#d79b00;" vertex="1" parent="1">
          <mxGeometry x="440" y="260" width="160" height="60" as="geometry" />
        </mxCell>
        <mxCell id="zkv0B2UUDF8M9o5TSkQS-4" value="m[2]" style="rounded=0;whiteSpace=wrap;html=1;fillColor=#ffe6cc;strokeColor=#d79b00;" vertex="1" parent="1">
          <mxGeometry x="600" y="260" width="80" height="60" as="geometry" />
        </mxCell>
        <mxCell id="zkv0B2UUDF8M9o5TSkQS-5" value="PB" style="rounded=0;whiteSpace=wrap;html=1;fillColor=#ffe6cc;strokeColor=#d79b00;" vertex="1" parent="1">
          <mxGeometry x="680" y="260" width="80" height="60" as="geometry" />
        </mxCell>
        <mxCell id="zkv0B2UUDF8M9o5TSkQS-18" value="" style="edgeStyle=orthogonalEdgeStyle;rounded=0;orthogonalLoop=1;jettySize=auto;html=1;" edge="1" parent="1" source="zkv0B2UUDF8M9o5TSkQS-6" target="zkv0B2UUDF8M9o5TSkQS-7">
          <mxGeometry relative="1" as="geometry" />
        </mxCell>
        <mxCell id="zkv0B2UUDF8M9o5TSkQS-6" value="h" style="shape=loopLimit;whiteSpace=wrap;html=1;direction=south;fillColor=#e1d5e7;strokeColor=#9673a6;" vertex="1" parent="1">
          <mxGeometry x="180" y="400" width="50" height="80" as="geometry" />
        </mxCell>
        <mxCell id="zkv0B2UUDF8M9o5TSkQS-19" value="" style="edgeStyle=orthogonalEdgeStyle;rounded=0;orthogonalLoop=1;jettySize=auto;html=1;" edge="1" parent="1" source="zkv0B2UUDF8M9o5TSkQS-7" target="zkv0B2UUDF8M9o5TSkQS-8">
          <mxGeometry relative="1" as="geometry" />
        </mxCell>
        <mxCell id="zkv0B2UUDF8M9o5TSkQS-7" value="h" style="shape=loopLimit;whiteSpace=wrap;html=1;direction=south;fillColor=#e1d5e7;strokeColor=#9673a6;" vertex="1" parent="1">
          <mxGeometry x="335" y="400" width="50" height="80" as="geometry" />
        </mxCell>
        <mxCell id="zkv0B2UUDF8M9o5TSkQS-20" value="" style="edgeStyle=orthogonalEdgeStyle;rounded=0;orthogonalLoop=1;jettySize=auto;html=1;" edge="1" parent="1" source="zkv0B2UUDF8M9o5TSkQS-8" target="zkv0B2UUDF8M9o5TSkQS-9">
          <mxGeometry relative="1" as="geometry" />
        </mxCell>
        <mxCell id="zkv0B2UUDF8M9o5TSkQS-8" value="h" style="shape=loopLimit;whiteSpace=wrap;html=1;direction=south;fillColor=#e1d5e7;strokeColor=#9673a6;" vertex="1" parent="1">
          <mxGeometry x="495" y="400" width="50" height="80" as="geometry" />
        </mxCell>
        <mxCell id="zkv0B2UUDF8M9o5TSkQS-22" style="edgeStyle=orthogonalEdgeStyle;rounded=0;orthogonalLoop=1;jettySize=auto;html=1;exitX=0.5;exitY=0;exitDx=0;exitDy=0;entryX=0.25;entryY=1;entryDx=0;entryDy=0;" edge="1" parent="1" source="zkv0B2UUDF8M9o5TSkQS-9" target="zkv0B2UUDF8M9o5TSkQS-21">
          <mxGeometry relative="1" as="geometry" />
        </mxCell>
        <mxCell id="zkv0B2UUDF8M9o5TSkQS-9" value="h" style="shape=loopLimit;whiteSpace=wrap;html=1;direction=south;fillColor=#e1d5e7;strokeColor=#9673a6;" vertex="1" parent="1">
          <mxGeometry x="650" y="400" width="50" height="80" as="geometry" />
        </mxCell>
        <mxCell id="zkv0B2UUDF8M9o5TSkQS-10" value="" style="endArrow=classic;html=1;rounded=0;exitX=0.144;exitY=1.033;exitDx=0;exitDy=0;exitPerimeter=0;entryX=0.25;entryY=1;entryDx=0;entryDy=0;" edge="1" parent="1" source="zkv0B2UUDF8M9o5TSkQS-1" target="zkv0B2UUDF8M9o5TSkQS-6">
          <mxGeometry width="50" height="50" relative="1" as="geometry">
            <mxPoint x="400" y="430" as="sourcePoint" />
            <mxPoint x="450" y="380" as="targetPoint" />
            <Array as="points">
              <mxPoint x="143" y="420" />
            </Array>
          </mxGeometry>
        </mxCell>
        <mxCell id="zkv0B2UUDF8M9o5TSkQS-14" value="" style="endArrow=classic;html=1;rounded=0;exitX=0.175;exitY=0.967;exitDx=0;exitDy=0;exitPerimeter=0;entryX=0.25;entryY=1;entryDx=0;entryDy=0;" edge="1" parent="1" source="zkv0B2UUDF8M9o5TSkQS-3" target="zkv0B2UUDF8M9o5TSkQS-8">
          <mxGeometry width="50" height="50" relative="1" as="geometry">
            <mxPoint x="360" y="420" as="sourcePoint" />
            <mxPoint x="410" y="370" as="targetPoint" />
            <Array as="points">
              <mxPoint x="470" y="420" />
            </Array>
          </mxGeometry>
        </mxCell>
        <mxCell id="zkv0B2UUDF8M9o5TSkQS-15" value="" style="endArrow=classic;html=1;rounded=0;entryX=0.25;entryY=1;entryDx=0;entryDy=0;exitX=0.25;exitY=1;exitDx=0;exitDy=0;" edge="1" parent="1" source="zkv0B2UUDF8M9o5TSkQS-4" target="zkv0B2UUDF8M9o5TSkQS-9">
          <mxGeometry width="50" height="50" relative="1" as="geometry">
            <mxPoint x="360" y="420" as="sourcePoint" />
            <mxPoint x="410" y="370" as="targetPoint" />
            <Array as="points">
              <mxPoint x="620" y="420" />
            </Array>
          </mxGeometry>
        </mxCell>
        <mxCell id="zkv0B2UUDF8M9o5TSkQS-17" value="" style="edgeStyle=orthogonalEdgeStyle;rounded=0;orthogonalLoop=1;jettySize=auto;html=1;" edge="1" parent="1" source="zkv0B2UUDF8M9o5TSkQS-16" target="zkv0B2UUDF8M9o5TSkQS-6">
          <mxGeometry relative="1" as="geometry" />
        </mxCell>
        <mxCell id="zkv0B2UUDF8M9o5TSkQS-16" value="IV (fixed)" style="text;html=1;align=center;verticalAlign=middle;whiteSpace=wrap;rounded=0;fillColor=#dae8fc;strokeColor=#6c8ebf;" vertex="1" parent="1">
          <mxGeometry x="60" y="425" width="60" height="30" as="geometry" />
        </mxCell>
        <mxCell id="zkv0B2UUDF8M9o5TSkQS-30" value="" style="edgeStyle=orthogonalEdgeStyle;rounded=0;orthogonalLoop=1;jettySize=auto;html=1;" edge="1" parent="1" source="zkv0B2UUDF8M9o5TSkQS-21" target="zkv0B2UUDF8M9o5TSkQS-29">
          <mxGeometry relative="1" as="geometry" />
        </mxCell>
        <mxCell id="zkv0B2UUDF8M9o5TSkQS-21" value="h" style="shape=loopLimit;whiteSpace=wrap;html=1;direction=south;fillColor=#e1d5e7;strokeColor=#9673a6;" vertex="1" parent="1">
          <mxGeometry x="650" y="540" width="50" height="80" as="geometry" />
        </mxCell>
        <mxCell id="zkv0B2UUDF8M9o5TSkQS-28" value="" style="edgeStyle=orthogonalEdgeStyle;rounded=0;orthogonalLoop=1;jettySize=auto;html=1;" edge="1" parent="1" source="zkv0B2UUDF8M9o5TSkQS-23" target="zkv0B2UUDF8M9o5TSkQS-21">
          <mxGeometry relative="1" as="geometry" />
        </mxCell>
        <mxCell id="zkv0B2UUDF8M9o5TSkQS-23" value="h" style="shape=loopLimit;whiteSpace=wrap;html=1;direction=south;fillColor=#e1d5e7;strokeColor=#9673a6;" vertex="1" parent="1">
          <mxGeometry x="495" y="540" width="50" height="80" as="geometry" />
        </mxCell>
        <mxCell id="zkv0B2UUDF8M9o5TSkQS-25" value="" style="edgeStyle=orthogonalEdgeStyle;rounded=0;orthogonalLoop=1;jettySize=auto;html=1;entryX=0.25;entryY=1;entryDx=0;entryDy=0;" edge="1" parent="1" source="zkv0B2UUDF8M9o5TSkQS-24" target="zkv0B2UUDF8M9o5TSkQS-23">
          <mxGeometry relative="1" as="geometry" />
        </mxCell>
        <mxCell id="zkv0B2UUDF8M9o5TSkQS-24" value="k xor opad" style="rounded=0;whiteSpace=wrap;html=1;fillColor=#fff2cc;strokeColor=#d6b656;" vertex="1" parent="1">
          <mxGeometry x="265" y="510" width="160" height="60" as="geometry" />
        </mxCell>
        <mxCell id="zkv0B2UUDF8M9o5TSkQS-27" style="edgeStyle=orthogonalEdgeStyle;rounded=0;orthogonalLoop=1;jettySize=auto;html=1;exitX=1;exitY=0.5;exitDx=0;exitDy=0;" edge="1" parent="1" source="zkv0B2UUDF8M9o5TSkQS-26" target="zkv0B2UUDF8M9o5TSkQS-23">
          <mxGeometry relative="1" as="geometry" />
        </mxCell>
        <mxCell id="zkv0B2UUDF8M9o5TSkQS-26" value="IV (fixed)" style="text;html=1;align=center;verticalAlign=middle;whiteSpace=wrap;rounded=0;fillColor=#dae8fc;strokeColor=#6c8ebf;" vertex="1" parent="1">
          <mxGeometry x="310" y="610" width="60" height="30" as="geometry" />
        </mxCell>
        <mxCell id="zkv0B2UUDF8M9o5TSkQS-29" value="tag" style="text;html=1;align=center;verticalAlign=middle;whiteSpace=wrap;rounded=0;fillColor=#f8cecc;strokeColor=#b85450;" vertex="1" parent="1">
          <mxGeometry x="740" y="565" width="60" height="30" as="geometry" />
        </mxCell>
      </root>
    </mxGraphModel>
  </diagram>
</mxfile>
